<svg version="1.1" id="Layer_1" xmlns="http://www.w3.org/2000/svg" xmlns:xlink="http://www.w3.org/1999/xlink" x="0px" y="0px"
	 width="190.33px" height="171.594px" viewBox="106.143 315.25 190.33 171.594"
	 enable-background="new 106.143 315.25 190.33 171.594" xml:space="preserve" fill="#D92534">
<path fill="#D92534" d="M125.932,436.669c1.9-3.156,4.274-3.692,7.428-2.568c9.299,3.315,8.916,2.902,9.586-6.571
	c0.465-6.571-0.065-10.493-6.309-14.381c-7.75-4.827-7.565-17.358-0.966-23.827c0.895-0.876,1.72-1.983,3.284-1.66
	c1.321,0.875,0.882,2.286,1.015,3.505c0.518,4.752,2.511,8.581,6.699,11.145c1.812,1.108,3.14,1.232,4.515-0.801
	c9.101-13.457,21.986-15.993,37.042-13.141c7.854,1.488,15.294,4.493,23.267,5.527c6.249,0.811,12.415,0.5,18.425-0.795
	c7.441-1.604,12.399-6.385,14.837-13.784c0.86-2.611,0.168-3.784-2.343-3.83c-9.87-0.18-19.037-3.174-27.845-7.221
	c-8.348-3.836-16.142-8.623-21.844-16.123c-1.846-2.427-3.443-5.13-1.933-8.184c1.456-2.944,4.477-3.087,7.392-3.132
	c11.059-0.17,21.306,3.117,31.343,7.306c2.918,1.218,5.787,2.571,9.292,2.621c-4.222-3.309-8.546-6.496-12.638-9.958
	c-4.658-3.943-8.716-8.412-10.36-14.543c-0.265-0.99-0.515-1.996-0.633-3.011c-0.688-5.938,2.29-8.726,8.189-7.827
	c6.604,1.006,12.131,4.291,17.181,8.349c10.784,8.667,19.79,18.805,24.969,31.882c0.672,1.698,1.692,2.227,3.488,2.316
	c7.493,0.37,13.589,3.304,17.825,9.804c2.384,3.658,4.854,7.312,8.15,10.263c2,1.79,1.593,3.951,0.999,6.084
	c-1.945,6.99-6.661,11.015-13.589,12.85c-2.81,0.744-6.477-0.094-8.271,2.421c-1.627,2.281-0.179,5.515-0.396,8.322
	c-0.499,6.467-1.9,12.729-4.403,18.701c-1.288,3.074-0.958,5.132,2.12,7.068c4.129,2.597,7.942,5.713,11.798,8.727
	c4.153,3.247,6.417,7.687,7.302,12.796c0.592,3.417-0.144,6.754-3.479,8.267c-3.525,1.599-5.947-0.828-7.523-3.68
	c-4.474-8.096-12.097-10.829-20.393-13.194c-5.423-1.546-10.292-0.707-15.397,0.476c-7.916,1.834-15.631,0.475-23.167-1.923
	c-5.153-1.639-10.068-3.976-14.814-6.584c-4.017-2.208-8.418-3.151-12.781-4.229c-3.264-0.806-5.34,0.232-7.092,3.486
	c-6.197,11.509-15.385,19.166-28.862,20.67c-5.707,0.637-10.963-0.89-16.041-3.299c-4.241-2.012-4.441-1.934-5.528,2.727
	c-1.14,4.885-1.723,9.936-3.791,14.549c-2.736,6.105-6.258,11.547-13.128,13.806c-2.923,0.961-5.852,1.04-8.729,0.168
	c-4.079-1.235-4.881-5.063-1.819-8.094c0.274-0.271,0.556-0.552,0.883-0.748c11.14-6.681,13.477-17.906,15.037-29.44
	C124.421,444.253,124.847,440.558,125.932,436.669z"/>
<path fill="#D92534" d="M295.821,434.338c1.126,3.639,2.505,7.351-0.994,9.816c-3.678,2.594-6.409-0.458-9.079-2.639
	c-3.277-2.677-6.588-5.313-9.828-8.034c-2.834-2.381-3.407-5.829-1.648-8.957c0.638-1.135,1.585-1.784,2.835-1.518
	C284.543,424.586,292.121,425.97,295.821,434.338z"/>
</svg>
