<svg version="1.1" id="Layer_1" xmlns="http://www.w3.org/2000/svg" xmlns:xlink="http://www.w3.org/1999/xlink" x="0px" y="0px"
	 width="100%" viewBox="0 0 672 1024" enable-background="new 0 0 672 1024" xml:space="preserve">
<path fill="#000000" opacity="1.000000" stroke="none" 
	d="
M103.184799,564.582642 
	C105.641098,560.501099 108.711540,559.807861 112.788544,561.261230 
	C124.811646,565.547363 124.315598,565.013550 125.183189,552.764893 
	C125.784966,544.268982 125.098289,539.198120 117.025970,534.171143 
	C107.005363,527.930847 107.244820,511.728424 115.776459,503.365204 
	C116.933037,502.231476 118.000175,500.800659 120.021965,501.218719 
	C121.729607,502.349854 121.162651,504.173950 121.334351,505.749786 
	C122.003876,511.894440 124.580528,516.844421 129.995911,520.158691 
	C132.338455,521.592407 134.055435,521.753052 135.833603,519.123840 
	C147.600647,501.725250 164.259598,498.445953 183.726822,502.133392 
	C193.881989,504.056946 203.501511,507.941681 213.809311,509.279297 
	C221.888336,510.327728 229.861008,509.926025 237.631393,508.251038 
	C247.252777,506.177094 253.662888,499.996490 256.814697,490.429779 
	C257.926910,487.053741 257.031281,485.537903 253.784790,485.478607 
	C241.023560,485.245453 229.171295,481.375000 217.783722,476.142151 
	C206.990799,471.182495 196.913773,464.993591 189.540451,455.296600 
	C187.154297,452.158478 185.088669,448.664307 187.040939,444.716064 
	C188.923157,440.909485 192.829544,440.724243 196.598145,440.666199 
	C210.895569,440.445984 224.144806,444.695740 237.121826,450.111847 
	C240.895187,451.686707 244.603912,453.436462 249.136017,453.500885 
	C243.677673,449.222778 238.085907,445.102295 232.796265,440.624908 
	C226.773941,435.527344 221.526321,429.748657 219.401108,421.822235 
	C219.057983,420.542419 218.734802,419.241150 218.582718,417.928894 
	C217.692947,410.251617 221.542648,406.646851 229.171005,407.809296 
	C237.708954,409.110382 244.856125,413.357056 251.384567,418.604248 
	C265.327393,429.810638 276.970917,442.917877 283.667053,459.825928 
	C284.536652,462.021667 285.855621,462.705444 288.177490,462.820129 
	C297.864746,463.298615 305.747314,467.091614 311.223816,475.495850 
	C314.305389,480.224792 317.498566,484.949615 321.761200,488.764465 
	C324.347382,491.079041 323.820892,493.872314 323.052948,496.631439 
	C320.537567,505.668732 314.440460,510.872375 305.483856,513.245117 
	C301.850983,514.207581 297.108978,513.123962 294.788910,516.375549 
	C292.685211,519.324036 294.558319,523.504456 294.278107,527.135681 
	C293.632904,535.496338 291.820435,543.591797 288.584869,551.314575 
	C286.919708,555.289124 287.345581,557.949463 291.325562,560.452820 
	C296.664673,563.811096 301.594849,567.839966 306.579254,571.736145 
	C311.949707,575.934082 314.875824,581.674194 316.020660,588.280762 
	C316.786163,592.698425 315.834442,597.012817 311.522247,598.968567 
	C306.964172,601.035767 303.833588,597.897644 301.795563,594.210266 
	C296.010651,583.743774 286.155609,580.209839 275.428558,577.151672 
	C268.417603,575.152893 262.122131,576.236877 255.521317,577.766479 
	C245.287125,580.138062 235.311356,578.380432 225.568192,575.280823 
	C218.905487,573.161194 212.550415,570.139954 206.414459,566.767517 
	C201.220184,563.912659 195.529922,562.692688 189.888901,561.300049 
	C185.668854,560.258240 182.984589,561.601379 180.719376,565.808533 
	C172.707962,580.687988 160.828262,590.588074 143.402603,592.532532 
	C136.023697,593.355896 129.228043,591.383179 122.662598,588.267822 
	C117.179756,585.666199 116.920364,585.767212 115.514839,591.792969 
	C114.041718,598.108337 113.287537,604.638672 110.613800,610.604126 
	C107.075974,618.497375 102.522270,625.532898 93.639381,628.453308 
	C89.860100,629.695740 86.073364,629.798401 82.352776,628.670959 
	C77.078888,627.072815 76.042221,622.123596 80.000526,618.206299 
	C80.354622,617.855835 80.719574,617.492004 81.142067,617.238708 
	C95.545166,608.600830 98.567223,594.086731 100.583824,579.174866 
	C101.231178,574.387939 101.781982,569.610046 103.184799,564.582642 
z"/>
<path fill="#000000" opacity="1.000000" stroke="none" 
	d="
M386.990875,445.624329 
	C389.174316,452.055145 391.226471,458.446350 398.055542,461.314819 
	C399.994598,462.129303 400.275940,463.699158 400.070099,465.416656 
	C399.719482,468.341675 398.695099,470.920349 395.688873,472.152069 
	C391.545990,473.849457 386.820099,472.411957 383.842407,468.295898 
	C380.324280,463.432831 377.433472,458.178497 374.739227,452.817871 
	C374.142334,451.630249 373.526154,450.443146 372.805969,449.328735 
	C371.659729,447.554993 369.929688,447.110016 367.997620,447.669800 
	C366.160645,448.202057 366.173706,449.836182 366.139923,451.347992 
	C366.031982,456.173981 366.014954,461.003143 365.829407,465.825958 
	C365.677155,469.783997 363.721863,472.445099 359.699829,473.204773 
	C354.858276,474.119293 352.579803,472.084259 352.548737,467.102539 
	C352.449036,451.128693 353.170135,435.147308 352.127869,419.182220 
	C352.052002,418.020721 351.970398,416.848785 351.749237,415.709320 
	C350.361176,408.558929 351.093933,407.360809 358.407410,406.998627 
	C364.548981,406.694489 370.735413,406.633209 376.870117,406.999146 
	C387.863708,407.654938 394.161285,411.996277 396.233704,419.742432 
	C399.223114,430.915833 396.414612,438.844421 386.990875,445.624329 
M378.211823,436.056213 
	C382.605194,432.992706 384.369995,427.247681 382.333893,422.637299 
	C380.729065,419.003448 373.082306,415.940643 368.306213,417.540314 
	C363.401459,419.183136 366.115936,423.525818 366.075775,426.538269 
	C365.925873,437.778931 366.114075,437.781433 378.211823,436.056213 
z"/>
<path fill="#000000" opacity="1.000000" stroke="none" 
	d="
M397.313293,511.667603 
	C396.497192,517.884949 393.740631,522.461121 388.797363,525.572266 
	C386.928864,526.748230 386.087372,528.070862 387.346741,530.041626 
	C390.395172,534.812134 391.698120,540.970886 397.985229,543.188477 
	C400.100342,543.934509 400.180481,546.002197 399.967163,547.849060 
	C399.625092,550.811279 398.416901,553.277466 395.346741,554.369324 
	C391.234650,555.831665 386.429901,554.144226 383.663269,549.960571 
	C380.269531,544.828491 377.020050,539.604187 374.441925,533.983215 
	C373.336487,531.573059 372.089813,528.892822 368.596313,529.784790 
	C365.097351,530.678223 366.163239,533.678406 366.058502,536.002502 
	C365.901276,539.491699 365.977020,542.991089 365.935211,546.485901 
	C365.913147,548.332214 365.690277,550.146484 364.748413,551.785828 
	C362.761261,555.244324 359.583954,555.809509 356.102478,554.998047 
	C352.877136,554.246216 352.435516,551.684082 352.459167,548.766724 
	C352.580444,533.788635 352.588409,518.809692 352.668274,503.831207 
	C352.683502,500.977844 352.595428,498.141724 351.345673,495.525665 
	C349.768097,492.223389 351.026947,490.185577 354.307983,489.742493 
	C365.243652,488.265656 376.270172,487.511017 386.935791,491.033630 
	C393.687561,493.263611 396.346100,499.073181 397.211487,505.739502 
	C397.445618,507.543121 397.307770,509.394989 397.313293,511.667603 
M365.968811,507.568481 
	C366.117340,519.256836 366.117340,519.256836 374.146667,518.808777 
	C381.783234,518.382690 385.967407,510.933899 382.465820,503.998840 
	C380.804626,500.708771 373.217651,498.192810 368.511353,499.489594 
	C364.385468,500.626495 366.510834,504.130798 365.968811,507.568481 
z"/>
<path fill="#000000" opacity="1.000000" stroke="none" 
	d="
M391.616669,571.090027 
	C397.508270,574.890198 399.415222,579.148682 398.162537,585.217102 
	C397.785400,587.044128 397.244537,588.901978 395.210236,589.504028 
	C392.929291,590.179077 391.235596,588.952820 390.223846,587.103577 
	C386.931671,581.086792 381.741272,579.330994 375.431244,580.620850 
	C368.331329,582.072083 365.450653,587.420898 364.505096,593.948425 
	C363.691589,599.564514 363.443909,605.318848 364.388367,610.898865 
	C366.430695,622.965637 374.592682,625.973083 385.583710,623.052307 
	C391.186584,621.563477 388.018524,616.255310 388.490936,612.676086 
	C388.922211,609.408386 386.228912,609.133362 383.744843,609.123535 
	C383.244965,609.121521 382.744965,609.108704 382.245331,609.092163 
	C378.445679,608.966003 374.430420,608.864380 374.463043,603.615540 
	C374.494812,598.506836 378.651550,598.098816 382.296204,597.861023 
	C386.937256,597.558228 391.607758,597.538391 396.258484,598.285522 
	C399.428925,598.794922 401.044434,600.488770 401.085541,603.601868 
	C401.169067,609.933228 401.259155,616.268127 401.135712,622.597412 
	C401.044830,627.259766 398.259155,630.178101 394.286652,632.253357 
	C374.783783,642.441650 353.293701,631.763245 350.099182,610.145691 
	C349.067352,603.163147 349.659149,596.186279 351.400848,589.330444 
	C356.392670,569.681213 376.720245,565.102051 391.616669,571.090027 
z"/>
<path fill="#000000" opacity="1.000000" stroke="none" 
	d="
M521.808350,505.917633 
	C530.947510,506.822571 535.459229,512.133057 537.299622,520.249390 
	C538.641357,526.166687 538.859375,532.113647 537.589417,538.066223 
	C534.839783,550.954041 524.558777,557.028931 512.154663,552.827332 
	C508.860382,551.711548 506.100830,551.220764 502.668854,552.647339 
	C498.413300,554.416199 495.941864,552.176208 495.932648,547.115173 
	C495.905090,531.968018 495.991821,516.820679 495.973328,501.673492 
	C495.969086,498.210175 496.269867,494.707733 494.388519,491.459473 
	C493.228851,489.457184 494.313904,487.869598 496.227356,487.040100 
	C500.855133,485.033936 508.076569,485.447205 508.471161,493.068970 
	C508.727203,498.015106 509.109467,502.954712 509.455048,508.198853 
	C513.729248,507.616852 517.373230,505.673126 521.808350,505.917633 
M509.034241,524.862549 
	C509.045502,529.185730 509.165314,533.512146 509.034180,537.830994 
	C508.926636,541.373108 510.801819,542.950256 513.960632,543.573364 
	C519.176147,544.602234 522.999939,542.206848 524.643860,537.031738 
	C526.224060,532.056946 525.697144,527.106201 524.288879,522.293518 
	C523.158142,518.429504 520.319641,515.912598 516.088501,516.493530 
	C512.010559,517.053528 508.830536,519.064331 509.034241,524.862549 
z"/>
<path fill="#000000" opacity="1.000000" stroke="none" 
	d="
M463.750183,552.805176 
	C461.174103,551.646851 459.315063,550.532349 456.476593,552.035339 
	C451.047577,554.909912 447.938446,552.731812 447.919373,546.529968 
	C447.871796,531.048523 447.917328,515.566772 447.885468,500.085175 
	C447.881378,498.096802 448.136871,495.899109 447.404449,494.164825 
	C445.927155,490.666748 444.913483,487.858459 449.930847,486.612000 
	C455.347076,485.266510 459.013428,486.854004 460.277985,491.415894 
	C461.222595,494.823486 461.141449,498.325958 461.194244,501.826263 
	C461.225555,503.902893 460.534027,506.137482 461.947021,507.983551 
	C463.326599,508.531067 464.317780,507.712006 465.386475,507.362061 
	C477.689178,503.333466 486.007355,507.692596 489.336243,520.115540 
	C490.954498,526.154480 490.968842,532.391235 489.591217,538.413452 
	C486.747711,550.843628 477.433960,555.990540 463.750183,552.805176 
M461.225677,537.037964 
	C460.798004,541.022949 463.088562,542.761841 466.580627,543.455200 
	C470.670349,544.267212 473.878174,542.851746 475.658203,539.120422 
	C478.518372,533.124817 478.499054,526.913940 475.899170,520.844116 
	C474.109985,516.666992 470.349274,516.558289 466.584503,517.205750 
	C463.039062,517.815552 461.061554,519.935120 461.125763,523.720520 
	C461.195984,527.858459 461.185577,531.997864 461.225677,537.037964 
z"/>
<path fill="#000000" opacity="1.000000" stroke="none" 
	d="
M470.595337,424.859314 
	C472.866058,425.689178 474.428864,425.477356 474.487732,423.092682 
	C474.577576,419.454010 475.354431,415.629364 473.687073,412.245300 
	C471.883850,408.585480 471.646301,406.002228 476.255157,404.618408 
	C482.042358,402.880768 486.060913,404.420532 487.097168,409.054932 
	C487.348297,410.178192 487.349152,411.372467 487.350647,412.534241 
	C487.372742,429.845551 487.433105,447.157104 487.353027,464.467987 
	C487.323151,470.927643 483.350006,473.212341 477.950653,469.761475 
	C475.941711,468.477509 474.715210,469.028076 473.009186,469.853058 
	C460.364380,475.967896 448.477051,470.025970 445.754761,456.359222 
	C444.599426,450.559296 444.432312,444.841705 445.976471,439.067139 
	C449.214020,426.960114 457.943848,421.753174 470.595337,424.859314 
M471.671204,460.279480 
	C473.951416,458.513031 474.815277,456.186981 474.729401,453.320160 
	C474.620331,449.679657 474.655212,446.029968 474.771942,442.388855 
	C474.904144,438.262695 473.683929,435.235138 469.154968,434.409180 
	C464.641693,433.585999 460.844696,435.571320 459.315887,439.953400 
	C457.569977,444.957764 457.781403,450.086609 459.238251,455.111633 
	C461.034912,461.308777 464.611969,462.933014 471.671204,460.279480 
z"/>
<path fill="#000000" opacity="1.000000" stroke="none" 
	d="
M444.229858,628.186157 
	C436.334564,635.455566 427.668365,636.958374 418.112946,633.022827 
	C408.927338,629.239563 406.248474,621.362427 405.885223,612.428467 
	C405.477509,602.400818 407.610504,593.256775 417.945282,588.767151 
	C426.489197,585.055481 435.082764,585.624329 442.522308,591.406860 
	C449.341949,596.707642 450.309601,604.732056 449.974304,612.682434 
	C449.742615,618.176331 448.334564,623.567688 444.229858,628.186157 
M420.819916,620.470520 
	C422.603943,624.197571 425.704987,625.190247 429.534851,624.665527 
	C433.453369,624.128601 435.226562,621.345764 436.008575,617.949341 
	C437.178680,612.867493 437.125793,607.739563 435.559021,602.696228 
	C434.288422,598.606201 431.471771,596.884277 427.255249,597.056519 
	C422.960724,597.232056 420.295563,599.468018 419.567657,603.533752 
	C418.594696,608.968201 418.517639,614.451965 420.819916,620.470520 
z"/>
<path fill="#000000" opacity="1.000000" stroke="none" 
	d="
M409.464966,428.324982 
	C414.904144,424.536011 420.651489,423.226410 426.821106,423.713074 
	C432.036438,424.124451 436.600830,426.019531 439.516541,430.574371 
	C445.859924,440.483765 440.407349,451.135162 428.567688,452.232300 
	C424.155151,452.641205 419.569946,451.528503 415.336945,453.553009 
	C415.873779,458.632965 419.017700,461.274811 424.821350,461.584625 
	C428.068298,461.757935 431.056061,460.727844 433.981720,459.464783 
	C435.753540,458.699890 437.540375,458.231140 438.944427,460.074799 
	C440.410980,462.000549 440.493835,464.121948 439.211060,466.143280 
	C437.421326,468.963470 434.640350,470.431854 431.511871,471.298218 
	C412.507965,476.560730 397.945343,463.567719 400.989685,444.080139 
	C401.944916,437.965576 404.245514,432.567322 409.464966,428.324982 
M427.245148,442.104279 
	C429.516174,440.954559 430.233307,439.087738 429.482361,436.745056 
	C428.788666,434.580841 426.859802,433.863770 424.876007,433.507416 
	C419.515808,432.544525 415.128754,436.625702 415.361023,442.625916 
	C419.052643,443.286011 422.773895,443.161499 427.245148,442.104279 
z"/>
<path fill="#000000" opacity="1.000000" stroke="none" 
	d="
M438.516937,554.070862 
	C434.857452,554.478821 431.778168,554.294861 429.418793,551.560791 
	C427.258759,549.057678 425.526337,551.311768 423.754456,552.208679 
	C413.315552,557.492798 402.619415,552.325378 401.123016,541.236877 
	C400.092194,533.598267 405.275726,527.112366 413.960205,524.761353 
	C418.025482,523.660828 422.167877,524.395935 426.385956,523.970032 
	C426.766357,519.818420 424.826233,517.727844 421.193146,517.276794 
	C417.717926,516.845520 414.212646,516.925842 410.850800,518.212830 
	C408.800232,518.997864 406.494568,520.026123 405.202423,517.340637 
	C404.040558,514.925842 404.233185,512.016602 406.503296,510.510620 
	C414.043823,505.508087 422.364777,504.597565 430.805695,507.690125 
	C437.833344,510.264923 439.363831,516.386597 439.375702,523.120667 
	C439.385101,528.448425 439.400513,533.776306 439.432159,539.104004 
	C439.449158,541.968384 439.677887,544.930847 441.435181,547.214050 
	C444.411713,551.081360 442.706024,552.825378 438.516937,554.070862 
M426.343842,540.876953 
	C427.992981,538.243408 428.522766,534.857910 426.301270,533.104004 
	C423.860260,531.176758 420.239532,531.950439 417.266876,533.330566 
	C414.350800,534.684387 413.973816,537.302124 414.337677,540.106262 
	C414.620575,542.286621 415.946167,543.861938 418.003632,544.423706 
	C421.249573,545.309998 423.848480,543.977783 426.343842,540.876953 
z"/>
<path fill="#000000" opacity="1.000000" stroke="none" 
	d="
M583.455261,553.717224 
	C573.394165,554.157898 568.204285,549.671021 567.781433,540.158752 
	C567.500671,533.843323 567.662231,527.506409 567.703918,521.179565 
	C567.718384,518.981506 567.358459,517.280212 564.798462,516.726257 
	C562.044250,516.130371 559.786865,514.933350 559.703552,511.542908 
	C559.619080,508.102539 561.558899,507.035675 564.602722,506.518188 
	C567.782227,505.977631 566.821289,503.181641 566.635193,501.223846 
	C566.370850,498.442596 564.974121,495.562714 569.382446,494.698914 
	C574.442810,493.707336 577.968323,495.100220 579.289795,499.014496 
	C579.606934,499.953857 579.903320,500.969177 579.880859,501.942047 
	C579.793030,505.762512 581.315186,507.716309 585.385559,507.927216 
	C588.026062,508.064026 589.470276,509.990784 589.224915,512.807251 
	C588.985779,515.550354 587.394165,517.264404 584.722839,517.177979 
	C580.714478,517.048157 580.055786,519.158325 580.174255,522.492798 
	C580.351440,527.482056 580.177246,532.483032 580.294250,537.475647 
	C580.380859,541.173157 582.129700,543.560059 586.123840,543.340088 
	C588.472961,543.210754 591.089172,542.404236 591.925171,545.504578 
	C592.809692,548.785095 590.787170,550.894104 588.102905,552.289001 
	C586.805054,552.963501 585.278687,553.198364 583.455261,553.717224 
z"/>
<path fill="#000000" opacity="1.000000" stroke="none" 
	d="
M544.816162,548.656311 
	C543.823853,537.619019 545.308350,526.933167 543.972473,516.315063 
	C543.745483,514.510742 544.039673,512.583008 542.958374,510.982147 
	C540.826294,507.825714 542.568481,506.512573 545.368774,505.578064 
	C551.117737,503.659485 555.861450,506.628265 556.401245,512.539001 
	C557.432983,523.837463 557.277832,535.170044 557.305298,546.495239 
	C557.313232,549.742615 556.262207,552.540710 552.649414,553.224731 
	C549.063599,553.903809 545.919250,553.335938 544.816162,548.656311 
z"/>
<path fill="#000000" opacity="1.000000" stroke="none" 
	d="
M322.839661,561.567627 
	C324.295135,566.272278 326.078674,571.071594 321.555054,574.260742 
	C316.799255,577.613647 313.268738,573.667542 309.816589,570.848206 
	C305.579407,567.387878 301.298431,563.979797 297.110107,560.461365 
	C293.445648,557.383057 292.704712,552.924011 294.978638,548.879578 
	C295.803406,547.412659 297.027618,546.573792 298.644592,546.917358 
	C308.257385,548.959839 318.054962,550.748230 322.839661,561.567627 
z"/>
<path fill="#000000" opacity="1.000000" stroke="none" 
	d="
M556.039673,488.294556 
	C558.076294,492.304535 557.792664,495.782928 554.701843,498.538513 
	C552.240723,500.732666 549.240967,500.741791 546.384460,499.145050 
	C543.240784,497.387817 542.465210,494.430817 542.745605,491.092682 
	C542.994690,488.127258 544.733704,486.265015 547.453247,485.328888 
	C550.849182,484.160004 553.577820,485.332825 556.039673,488.294556 
z"/>
</svg>